<?xml version="1.0" encoding="UTF-8"?>
<svg id="Layer_1" xmlns="http://www.w3.org/2000/svg" viewBox="0 0 612 792">
  <defs>
    <style>
      .cls-1 {
        fill: #0c5477;
      }

      .cls-2 {
        fill: #fcb41f;
      }
    </style>
  </defs>
  <path class="cls-1" d="M139.19,152.89h14.78l-12.96,51.77h17.58l-1.82,7.43h-32.36l14.78-59.2Z"/>
  <path class="cls-1" d="M194.83,175.1h-22.21l1.82-7.43h36.99l-11.07,44.42h-36.99l7.35-29.64h22.21l1.89-7.35ZM191.11,189.88h-7.43l-3.71,14.78h7.43l3.71-14.78Z"/>
  <path class="cls-1" d="M229.16,212.08h-22.21l11.07-44.42h14.78l-9.25,36.99h7.43l9.25-36.99h14.78l-14.78,59.2H62.43l-2.3-7.35h167.21l1.82-7.43Z"/>
  <path class="cls-1" d="M267.13,204.66h22.21l-1.82,7.43h-36.99l11.07-44.42h36.99l-7.43,29.71h-22.21l-1.82,7.28ZM281.99,175.1h-7.43l-3.71,14.86h7.43l3.71-14.86Z"/>
  <path class="cls-1" d="M294.12,212.08l11.07-44.42h29.56l-1.82,7.43h-14.78l-9.25,36.99h-14.78Z"/>
  <path class="cls-2" d="M377.79,152.89l-1.82,7.35h-17.96l-3.71,14.86h17.89l-1.89,7.43h-17.89l-7.35,29.56h-14.78l14.78-59.2h32.74Z"/>
  <path class="cls-2" d="M380.67,167.67h36.99l-11.07,44.42h-36.99l11.07-44.42ZM401.06,175.1h-7.43l-7.43,29.56h7.43l7.43-29.56Z"/>
  <path class="cls-2" d="M413.19,212.08l11.07-44.42h29.56l-1.82,7.43h-14.78l-9.25,36.99h-14.78Z"/>
  <path class="cls-2" d="M471.55,212.08h-22.21l11.07-44.42h36.99l-14.78,59.2h-36.99l1.89-7.35h22.21l1.82-7.43ZM480.8,175.1h-7.43l-7.43,29.56h7.43l7.43-29.56Z"/>
  <path class="cls-2" d="M509.52,204.66h22.21l-1.82,7.43h-36.99l11.07-44.42h36.99l-7.43,29.71h-22.21l-1.82,7.28ZM524.38,175.1h-7.43l-3.71,14.86h7.43l3.71-14.86Z"/>
</svg>